<svg width="70" height="54" viewBox="0 0 70 54" fill="none" xmlns="http://www.w3.org/2000/svg">
<g clip-path="url(#clip0_1794_5204)">
<path opacity="0.5" d="M44.7766 41.675C41.8155 41.6754 38.9208 40.7978 36.4584 39.153C33.9961 37.5083 32.0768 35.1703 30.9432 32.4348C29.8097 29.6993 29.5127 26.689 30.09 23.7847C30.6672 20.8804 32.0928 18.2125 34.1863 16.1184C36.2798 14.0242 38.9473 12.5979 41.8514 12.0198C44.7555 11.4417 47.7659 11.7377 50.5017 12.8705C53.2376 14.0033 55.5762 15.9219 57.2216 18.3837C58.8671 20.8455 59.7456 23.74 59.746 26.7011V26.7033C59.7419 30.6724 58.1635 34.4778 55.3572 37.2846C52.5508 40.0913 48.7457 41.6703 44.7766 41.675Z" fill="white"/>
<path d="M30.2099 41.675C27.2488 41.675 24.3542 40.7969 21.8921 39.1518C19.4301 37.5067 17.5111 35.1685 16.3779 32.4327C15.2448 29.697 14.9483 26.6867 15.526 23.7825C16.1036 20.8783 17.5296 18.2106 19.6234 16.1168C21.7172 14.023 24.3849 12.5971 27.2891 12.0194C30.1933 11.4417 33.2036 11.7382 35.9393 12.8713C38.6751 14.0045 41.0133 15.9235 42.6584 18.3855C44.3035 20.8476 45.1816 23.7422 45.1816 26.7033C45.1775 30.6728 43.5988 34.4785 40.7919 37.2853C37.9851 40.0922 34.1794 41.6709 30.2099 41.675Z" fill="white"/>
<path d="M12.4472 45.9961C12.9029 45.9961 13.2982 46.0851 13.6328 46.2632C13.9746 46.4341 14.2381 46.6975 14.4233 47.0536C14.6155 47.4096 14.7116 47.8582 14.7116 48.3994V51.6572H13.9533V48.4742C13.9533 47.8832 13.8109 47.4381 13.526 47.139C13.2483 46.8328 12.8531 46.6797 12.3404 46.6797C11.9559 46.6797 11.6212 46.7616 11.3364 46.9254C11.0586 47.0821 10.8415 47.3135 10.6848 47.6197C10.5353 47.9188 10.4605 48.2819 10.4605 48.7092V51.6572H9.70211V48.4742C9.70211 47.8832 9.55969 47.4381 9.27486 47.139C8.99002 46.8328 8.59125 46.6797 8.07855 46.6797C7.70114 46.6797 7.37002 46.7616 7.08519 46.9254C6.80035 47.0821 6.5796 47.3135 6.42294 47.6197C6.27341 47.9188 6.19864 48.2819 6.19864 48.7092V51.6572H5.44026V46.0495H6.16659V47.5663L6.0491 47.2992C6.22 46.8934 6.49415 46.5765 6.87156 46.3486C7.25609 46.1136 7.70826 45.9961 8.22809 45.9961C8.7764 45.9961 9.24281 46.135 9.62734 46.4127C10.0119 46.6833 10.2611 47.0927 10.375 47.641L10.076 47.5236C10.2397 47.0678 10.5281 46.7011 10.9411 46.4234C11.3613 46.1385 11.8633 45.9961 12.4472 45.9961ZM20.2825 51.6572V50.4182L20.2504 50.2152V48.1431C20.2504 47.666 20.1151 47.2992 19.8445 47.0429C19.5811 46.7865 19.1858 46.6584 18.6589 46.6584C18.2957 46.6584 17.9504 46.7189 17.6228 46.84C17.2952 46.961 17.0175 47.1212 16.7897 47.3206L16.4479 46.7545C16.7327 46.5124 17.0745 46.3272 17.4733 46.1991C17.872 46.0638 18.2922 45.9961 18.7337 45.9961C19.46 45.9961 20.019 46.1777 20.4106 46.5409C20.8094 46.8969 21.0088 47.4417 21.0088 48.1751V51.6572H20.2825ZM18.3491 51.7106C17.929 51.7106 17.5623 51.643 17.249 51.5077C16.9428 51.3653 16.7078 51.173 16.544 50.9309C16.3802 50.6817 16.2983 50.3968 16.2983 50.0764C16.2983 49.7844 16.366 49.521 16.5013 49.286C16.6437 49.0439 16.8716 48.8516 17.1849 48.7092C17.5053 48.5596 17.9326 48.4849 18.4666 48.4849H20.4V49.051H18.488C17.9468 49.051 17.5694 49.1471 17.3558 49.3394C17.1493 49.5316 17.046 49.7702 17.046 50.055C17.046 50.3755 17.1706 50.6318 17.4199 50.8241C17.6691 51.0163 18.018 51.1125 18.4666 51.1125C18.8939 51.1125 19.2606 51.0163 19.5668 50.8241C19.8801 50.6247 20.108 50.3399 20.2504 49.9696L20.4213 50.493C20.2789 50.8632 20.0297 51.1588 19.6736 51.3795C19.3247 51.6003 18.8832 51.7106 18.3491 51.7106ZM24.5747 51.7106C24.1118 51.7106 23.6739 51.6465 23.2609 51.5184C22.8479 51.3831 22.5239 51.2157 22.2889 51.0163L22.6307 50.4182C22.8585 50.5891 23.1505 50.7386 23.5065 50.8668C23.8626 50.9879 24.2364 51.0484 24.6281 51.0484C25.1622 51.0484 25.5467 50.9665 25.7817 50.8027C26.0167 50.6318 26.1342 50.4075 26.1342 50.1298C26.1342 49.9233 26.0665 49.7631 25.9312 49.6491C25.803 49.5281 25.6321 49.4391 25.4185 49.3821C25.2049 49.318 24.9663 49.2646 24.7029 49.2219C24.4394 49.1792 24.1759 49.1293 23.9124 49.0723C23.6561 49.0154 23.4211 48.9335 23.2075 48.8267C22.9938 48.7127 22.8194 48.5596 22.6841 48.3674C22.5559 48.1751 22.4918 47.9188 22.4918 47.5983C22.4918 47.2921 22.5773 47.018 22.7482 46.7759C22.9191 46.5338 23.1683 46.345 23.4959 46.2098C23.8305 46.0673 24.2364 45.9961 24.7135 45.9961C25.0767 45.9961 25.4399 46.046 25.803 46.1457C26.1662 46.2382 26.4653 46.3629 26.7003 46.5195L26.3691 47.1283C26.1199 46.9574 25.8529 46.8364 25.568 46.7652C25.2832 46.6869 24.9984 46.6477 24.7135 46.6477C24.208 46.6477 23.8341 46.7367 23.592 46.9147C23.357 47.0856 23.2395 47.3064 23.2395 47.577C23.2395 47.7906 23.3036 47.9579 23.4318 48.079C23.5671 48.2 23.7415 48.2962 23.9552 48.3674C24.1759 48.4315 24.4145 48.4849 24.6708 48.5276C24.9343 48.5703 25.1942 48.6237 25.4505 48.6878C25.714 48.7448 25.9526 48.8267 26.1662 48.9335C26.3869 49.0332 26.5614 49.1792 26.6896 49.3714C26.8249 49.5566 26.8925 49.8022 26.8925 50.1084C26.8925 50.436 26.8 50.7208 26.6148 50.9629C26.4368 51.1979 26.1733 51.3831 25.8244 51.5184C25.4826 51.6465 25.066 51.7106 24.5747 51.7106ZM30.0572 51.7106C29.5303 51.7106 29.1244 51.5682 28.8395 51.2834C28.5547 50.9985 28.4123 50.5962 28.4123 50.0764V44.8105H29.1707V50.0337C29.1707 50.3612 29.2525 50.614 29.4163 50.792C29.5872 50.9701 29.8293 51.0591 30.1427 51.0591C30.4773 51.0591 30.755 50.9629 30.9758 50.7707L31.2428 51.3154C31.0933 51.4507 30.9117 51.5504 30.6981 51.6145C30.4916 51.6786 30.2779 51.7106 30.0572 51.7106ZM27.4082 46.6797V46.0495H30.8797V46.6797H27.4082ZM34.8071 51.7106C34.2232 51.7106 33.7105 51.5896 33.269 51.3475C32.8275 51.0982 32.4822 50.76 32.2329 50.3327C31.9837 49.8984 31.8591 49.4035 31.8591 48.848C31.8591 48.2926 31.9766 47.8013 32.2116 47.374C32.4537 46.9468 32.7812 46.6121 33.1943 46.37C33.6144 46.1207 34.0844 45.9961 34.6042 45.9961C35.1311 45.9961 35.5976 46.1172 36.0034 46.3593C36.4165 46.5943 36.7405 46.929 36.9754 47.3633C37.2104 47.7906 37.3279 48.2855 37.3279 48.848C37.3279 48.8836 37.3244 48.9228 37.3172 48.9655C37.3172 49.0011 37.3172 49.0403 37.3172 49.083H32.4359V48.5169H36.9114L36.6123 48.7412C36.6123 48.3353 36.5233 47.9757 36.3452 47.6624C36.1743 47.342 35.9394 47.0927 35.6403 46.9147C35.3412 46.7367 34.9958 46.6477 34.6042 46.6477C34.2197 46.6477 33.8743 46.7367 33.5681 46.9147C33.2619 47.0927 33.0234 47.342 32.8525 47.6624C32.6816 47.9829 32.5961 48.3496 32.5961 48.7626V48.8801C32.5961 49.3073 32.6887 49.6847 32.8738 50.0123C33.0661 50.3327 33.3296 50.5855 33.6642 50.7707C34.006 50.9487 34.3941 51.0377 34.8285 51.0377C35.1703 51.0377 35.4872 50.9772 35.7791 50.8561C36.0782 50.7351 36.3346 50.5499 36.5482 50.3007L36.9754 50.792C36.7262 51.0911 36.4129 51.319 36.0355 51.4756C35.6652 51.6323 35.2558 51.7106 34.8071 51.7106ZM38.8715 51.6572V46.0495H39.5979V47.577L39.5231 47.3099C39.6798 46.8827 39.9432 46.5587 40.3135 46.3379C40.6838 46.1101 41.1431 45.9961 41.6914 45.9961V46.7331C41.6629 46.7331 41.6344 46.7331 41.606 46.7331C41.5775 46.726 41.549 46.7225 41.5205 46.7225C40.9295 46.7225 40.4666 46.904 40.1319 47.2672C39.7973 47.6232 39.6299 48.1324 39.6299 48.7946V51.6572H38.8715ZM48.2827 51.7106C47.7273 51.7106 47.2288 51.5896 46.7873 51.3475C46.3529 51.0982 46.0111 50.76 45.7619 50.3327C45.5127 49.8984 45.3881 49.4035 45.3881 48.848C45.3881 48.2855 45.5127 47.7906 45.7619 47.3633C46.0111 46.9361 46.3529 46.6014 46.7873 46.3593C47.2288 46.1172 47.7273 45.9961 48.2827 45.9961C48.7598 45.9961 49.1906 46.0887 49.5751 46.2738C49.9597 46.459 50.2623 46.7367 50.4831 47.107L49.9169 47.4915C49.7247 47.2067 49.4861 46.9966 49.2013 46.8613C48.9165 46.726 48.6067 46.6584 48.272 46.6584C47.8733 46.6584 47.5136 46.7509 47.1932 46.9361C46.8728 47.1141 46.62 47.3669 46.4348 47.6945C46.2497 48.022 46.1571 48.4065 46.1571 48.848C46.1571 49.2895 46.2497 49.6741 46.4348 50.0016C46.62 50.3292 46.8728 50.5855 47.1932 50.7707C47.5136 50.9487 47.8733 51.0377 48.272 51.0377C48.6067 51.0377 48.9165 50.9701 49.2013 50.8348C49.4861 50.6995 49.7247 50.493 49.9169 50.2152L50.4831 50.5998C50.2623 50.9629 49.9597 51.2407 49.5751 51.4329C49.1906 51.6181 48.7598 51.7106 48.2827 51.7106ZM55.487 51.6572V50.4182L55.455 50.2152V48.1431C55.455 47.666 55.3197 47.2992 55.0491 47.0429C54.7856 46.7865 54.3904 46.6584 53.8634 46.6584C53.5003 46.6584 53.1549 46.7189 52.8274 46.84C52.4998 46.961 52.2221 47.1212 51.9942 47.3206L51.6524 46.7545C51.9372 46.5124 52.279 46.3272 52.6778 46.1991C53.0766 46.0638 53.4967 45.9961 53.9382 45.9961C54.6645 45.9961 55.2235 46.1777 55.6152 46.5409C56.0139 46.8969 56.2133 47.4417 56.2133 48.1751V51.6572H55.487ZM53.5537 51.7106C53.1336 51.7106 52.7668 51.643 52.4535 51.5077C52.1473 51.3653 51.9123 51.173 51.7485 50.9309C51.5848 50.6817 51.5029 50.3968 51.5029 50.0764C51.5029 49.7844 51.5705 49.521 51.7058 49.286C51.8482 49.0439 52.0761 48.8516 52.3894 48.7092C52.7099 48.5596 53.1371 48.4849 53.6712 48.4849H55.6045V49.051H53.6925C53.1514 49.051 52.7739 49.1471 52.5603 49.3394C52.3538 49.5316 52.2506 49.7702 52.2506 50.055C52.2506 50.3755 52.3752 50.6318 52.6244 50.8241C52.8736 51.0163 53.2226 51.1125 53.6712 51.1125C54.0984 51.1125 54.4652 51.0163 54.7714 50.8241C55.0847 50.6247 55.3125 50.3399 55.455 49.9696L55.6259 50.493C55.4834 50.8632 55.2342 51.1588 54.8782 51.3795C54.5292 51.6003 54.0877 51.7106 53.5537 51.7106ZM58.2732 51.6572V46.0495H58.9995V47.577L58.9247 47.3099C59.0814 46.8827 59.3449 46.5587 59.7151 46.3379C60.0854 46.1101 60.5447 45.9961 61.093 45.9961V46.7331C61.0645 46.7331 61.0361 46.7331 61.0076 46.7331C60.9791 46.726 60.9506 46.7225 60.9221 46.7225C60.3311 46.7225 59.8682 46.904 59.5336 47.2672C59.1989 47.6232 59.0315 48.1324 59.0315 48.7946V51.6572H58.2732ZM64.6571 51.7106C64.123 51.7106 63.6424 51.5896 63.2151 51.3475C62.795 51.1054 62.4639 50.7707 62.2217 50.3434C61.9796 49.9091 61.8586 49.4106 61.8586 48.848C61.8586 48.2784 61.9796 47.7799 62.2217 47.3527C62.4639 46.9254 62.795 46.5943 63.2151 46.3593C63.6424 46.1172 64.123 45.9961 64.6571 45.9961C65.1484 45.9961 65.5864 46.1065 65.9709 46.3272C66.3625 46.548 66.6723 46.872 66.9002 47.2992C67.1352 47.7194 67.2526 48.2356 67.2526 48.848C67.2526 49.4533 67.1387 49.9696 66.9108 50.3968C66.683 50.8241 66.3732 51.1516 65.9816 51.3795C65.597 51.6003 65.1555 51.7106 64.6571 51.7106ZM64.7105 51.0377C65.1093 51.0377 65.4653 50.9487 65.7786 50.7707C66.0991 50.5855 66.3483 50.3292 66.5263 50.0016C66.7115 49.6669 66.804 49.2824 66.804 48.848C66.804 48.4065 66.7115 48.022 66.5263 47.6945C66.3483 47.3669 66.0991 47.1141 65.7786 46.9361C65.4653 46.7509 65.1093 46.6584 64.7105 46.6584C64.3188 46.6584 63.9664 46.7509 63.653 46.9361C63.3397 47.1141 63.0905 47.3669 62.9053 47.6945C62.7202 48.022 62.6276 48.4065 62.6276 48.848C62.6276 49.2824 62.7202 49.6669 62.9053 50.0016C63.0905 50.3292 63.3397 50.5855 63.653 50.7707C63.9664 50.9487 64.3188 51.0377 64.7105 51.0377ZM66.8254 51.6572V49.9696L66.9002 48.8374L66.7933 47.7051V43.7317H67.5517V51.6572H66.8254Z" fill="white"/>
</g>
<defs>
<clipPath id="clip0_1794_5204">
<rect width="69.4286" height="53.4066" fill="white" transform="translate(0.109375)"/>
</clipPath>
</defs>
</svg>
