<svg width="70" height="75" viewBox="0 0 70 75" fill="none" xmlns="http://www.w3.org/2000/svg">
<path d="M36.75 8.75C36.75 8.28587 36.5656 7.84075 36.2374 7.51256C35.9093 7.18437 35.4641 7 35 7C34.5359 7 34.0907 7.18437 33.7626 7.51256C33.4344 7.84075 33.25 8.28587 33.25 8.75V12.25C33.25 12.7141 33.4344 13.1592 33.7626 13.4874C34.0907 13.8156 34.5359 14 35 14C35.4641 14 35.9093 13.8156 36.2374 13.4874C36.5656 13.1592 36.75 12.7141 36.75 12.25V8.75ZM35 29.75C35 29.2859 34.8156 28.8407 34.4874 28.5126C34.1593 28.1844 33.7141 28 33.25 28C32.7859 28 32.3407 28.1844 32.0126 28.5126C31.6844 28.8407 31.5 29.2859 31.5 29.75V36.75C31.5 37.2141 31.6844 37.6593 32.0126 37.9874C32.3407 38.3156 32.7859 38.5 33.25 38.5H38.5C38.9641 38.5 39.4092 38.3156 39.7374 37.9874C40.0656 37.6593 40.25 37.2141 40.25 36.75C40.25 36.2859 40.0656 35.8407 39.7374 35.5126C39.4092 35.1844 38.9641 35 38.5 35H35V29.75ZM35 19.25C32.9317 19.25 30.8836 19.6574 28.9727 20.4489C27.0619 21.2404 25.3256 22.4005 23.8631 23.8631C22.4005 25.3256 21.2404 27.0619 20.4489 28.9727C19.6574 30.8836 19.25 32.9317 19.25 35C19.25 37.0683 19.6574 39.1164 20.4489 41.0273C21.2404 42.9381 22.4005 44.6744 23.8631 46.1369C25.3256 47.5995 27.0619 48.7596 28.9727 49.5511C30.8836 50.3426 32.9317 50.75 35 50.75C39.1772 50.75 43.1832 49.0906 46.1369 46.1369C49.0906 43.1832 50.75 39.1772 50.75 35C50.75 30.8228 49.0906 26.8168 46.1369 23.8631C43.1832 20.9094 39.1772 19.25 35 19.25ZM22.75 35C22.75 33.3913 23.0669 31.7984 23.6825 30.3121C24.2981 28.8259 25.2004 27.4755 26.3379 26.3379C27.4755 25.2004 28.8259 24.2981 30.3121 23.6825C31.7984 23.0669 33.3913 22.75 35 22.75C36.6087 22.75 38.2016 23.0669 39.6879 23.6825C41.1741 24.2981 42.5245 25.2004 43.6621 26.3379C44.7996 27.4755 45.7019 28.8259 46.3175 30.3121C46.9331 31.7984 47.25 33.3913 47.25 35C47.25 38.2489 45.9594 41.3647 43.6621 43.6621C41.3647 45.9594 38.2489 47.25 35 47.25C31.7511 47.25 28.6353 45.9594 26.3379 43.6621C24.0406 41.3647 22.75 38.2489 22.75 35ZM35 56C35.4641 56 35.9093 56.1844 36.2374 56.5126C36.5656 56.8408 36.75 57.2859 36.75 57.75V61.25C36.75 61.7141 36.5656 62.1592 36.2374 62.4874C35.9093 62.8156 35.4641 63 35 63C34.5359 63 34.0907 62.8156 33.7626 62.4874C33.4344 62.1592 33.25 61.7141 33.25 61.25V57.75C33.25 57.2859 33.4344 56.8408 33.7626 56.5126C34.0907 56.1844 34.5359 56 35 56ZM8.75 33.25C8.28587 33.25 7.84075 33.4344 7.51256 33.7626C7.18437 34.0907 7 34.5359 7 35C7 35.4641 7.18437 35.9093 7.51256 36.2374C7.84075 36.5656 8.28587 36.75 8.75 36.75H12.25C12.7141 36.75 13.1592 36.5656 13.4874 36.2374C13.8156 35.9093 14 35.4641 14 35C14 34.5359 13.8156 34.0907 13.4874 33.7626C13.1592 33.4344 12.7141 33.25 12.25 33.25H8.75ZM56 35C56 34.5359 56.1844 34.0907 56.5126 33.7626C56.8408 33.4344 57.2859 33.25 57.75 33.25H61.25C61.7141 33.25 62.1592 33.4344 62.4874 33.7626C62.8156 34.0907 63 34.5359 63 35C63 35.4641 62.8156 35.9093 62.4874 36.2374C62.1592 36.5656 61.7141 36.75 61.25 36.75H57.75C57.2859 36.75 56.8408 36.5656 56.5126 36.2374C56.1844 35.9093 56 35.4641 56 35ZM14.511 53.011C14.1824 53.3396 13.9978 53.7853 13.9978 54.25C13.9978 54.7147 14.1824 55.1604 14.511 55.489C14.8396 55.8176 15.2853 56.0022 15.75 56.0022C16.2147 56.0022 16.6604 55.8176 16.989 55.489L20.489 51.989C20.6517 51.8263 20.7808 51.6331 20.8688 51.4205C20.9569 51.208 21.0022 50.9801 21.0022 50.75C21.0022 50.5199 20.9569 50.292 20.8688 50.0795C20.7808 49.8669 20.6517 49.6737 20.489 49.511C20.3263 49.3483 20.1331 49.2192 19.9205 49.1312C19.708 49.0431 19.4801 48.9978 19.25 48.9978C19.0199 48.9978 18.792 49.0431 18.5795 49.1312C18.3669 49.2192 18.1737 49.3483 18.011 49.511L14.511 53.011ZM49.511 18.011L53.011 14.511C53.3396 14.1824 53.7853 13.9978 54.25 13.9978C54.7147 13.9978 55.1604 14.1824 55.489 14.511C55.8176 14.8396 56.0022 15.2853 56.0022 15.75C56.0022 16.2147 55.8176 16.6604 55.489 16.989L51.989 20.489C51.8263 20.6517 51.6331 20.7808 51.4205 20.8688C51.208 20.9569 50.9801 21.0022 50.75 21.0022C50.5199 21.0022 50.292 20.9569 50.0795 20.8688C49.8669 20.7808 49.6737 20.6517 49.511 20.489C49.3483 20.3263 49.2192 20.1331 49.1312 19.9205C49.0431 19.708 48.9978 19.4801 48.9978 19.25C48.9978 19.0199 49.0431 18.792 49.1312 18.5795C49.2192 18.3669 49.3483 18.1737 49.511 18.011ZM16.989 14.511C16.8263 14.3483 16.6331 14.2192 16.4205 14.1312C16.208 14.0431 15.9801 13.9978 15.75 13.9978C15.5199 13.9978 15.292 14.0431 15.0795 14.1312C14.8669 14.2192 14.6737 14.3483 14.511 14.511C14.3483 14.6737 14.2192 14.8669 14.1312 15.0795C14.0431 15.292 13.9978 15.5199 13.9978 15.75C13.9978 15.9801 14.0431 16.208 14.1312 16.4205C14.2192 16.6331 14.3483 16.8263 14.511 16.989L18.011 20.489C18.3396 20.8176 18.7853 21.0022 19.25 21.0022C19.7147 21.0022 20.1604 20.8176 20.489 20.489C20.8176 20.1604 21.0022 19.7147 21.0022 19.25C21.0022 18.7853 20.8176 18.3396 20.489 18.011L16.989 14.511ZM51.989 49.511L55.489 53.011C55.8176 53.3396 56.0022 53.7853 56.0022 54.25C56.0022 54.7147 55.8176 55.1604 55.489 55.489C55.1604 55.8176 54.7147 56.0022 54.25 56.0022C53.7853 56.0022 53.3396 55.8176 53.011 55.489L49.511 51.989C49.3483 51.8263 49.2192 51.6331 49.1312 51.4205C49.0431 51.208 48.9978 50.9801 48.9978 50.75C48.9978 50.5199 49.0431 50.292 49.1312 50.0795C49.2192 49.8669 49.3483 49.6737 49.511 49.511C49.6737 49.3483 49.8669 49.2192 50.0795 49.1312C50.292 49.0431 50.5199 48.9978 50.75 48.9978C50.9801 48.9978 51.208 49.0431 51.4205 49.1312C51.6331 49.2192 51.8263 49.3483 51.989 49.511Z" fill="white"/>
</svg>
